<svg width="80" height="62" viewBox="0 0 80 62" fill="none" xmlns="http://www.w3.org/2000/svg">
<path d="M79.829 59.9182C79.8323 60.1469 79.7892 60.3739 79.7024 60.5852C79.6156 60.7965 79.4868 60.9878 79.3241 61.1474C78.996 61.4771 78.5527 61.6645 78.089 61.6693C77.6292 61.664 77.1897 61.4778 76.8645 61.1505C76.5394 60.8233 76.3543 60.381 76.349 59.9182C76.3505 59.6864 76.3976 59.4571 76.4878 59.2437C76.578 59.0304 76.7094 58.8372 76.8744 58.6753C77.0317 58.5117 77.2206 58.3823 77.4295 58.2949C77.6384 58.2075 77.8628 58.164 78.089 58.1672C78.3178 58.1663 78.5444 58.2109 78.756 58.2986C78.9675 58.3863 79.1596 58.5153 79.3214 58.678C79.4832 58.8408 79.6113 59.0342 79.6984 59.2471C79.7855 59.4599 79.8299 59.688 79.829 59.9182ZM78.089 57.9749C77.8354 57.9703 77.5836 58.0179 77.3489 58.1147C77.1142 58.2116 76.9017 58.3556 76.7243 58.538C76.3608 58.9019 76.1548 59.3955 76.1511 59.9114C76.1547 60.4245 76.3583 60.9157 76.7182 61.2792C77.0781 61.6426 77.5655 61.8493 78.0754 61.8547C78.5892 61.8499 79.0801 61.64 79.4401 61.271C79.622 61.093 79.7656 60.8792 79.8618 60.6429C79.9581 60.4066 80.005 60.1529 79.9996 59.8976C80.0022 59.6427 79.954 59.3899 79.8579 59.154C79.7618 58.9181 79.6198 58.704 79.4401 58.5243C79.0787 58.17 78.5935 57.9727 78.089 57.9749ZM78.1436 58.7646H77.3384V61.017H77.6455V60.0144H78.205L78.6895 61.017H79.0307L78.5325 59.9663C78.6786 59.9592 78.816 59.8948 78.9155 59.787C79.0149 59.6792 79.0685 59.5366 79.0648 59.3895C79.0648 58.95 78.7645 58.7852 78.1436 58.7852V58.7646ZM78.089 58.9706C78.5394 58.9706 78.7714 59.0942 78.7714 59.3757C78.7714 59.6573 78.5735 59.8084 78.089 59.8084H77.6455V58.9706H78.089Z" fill="white"/>
<path d="M27.847 55.2417L39.3106 55.3309H51.1291C57.0156 52.6758 61.8206 48.0714 64.7439 42.2846C67.6673 36.4977 68.5325 29.8777 67.1955 23.527C65.8585 17.1762 62.4 11.478 57.3959 7.38141C52.3918 3.28477 46.1442 1.0369 39.6935 1.01217C33.2428 0.987435 26.9784 3.18731 21.9435 7.24546C16.9085 11.3036 13.4069 16.9751 12.0219 23.3154C10.6368 29.6557 11.4519 36.2822 14.3313 42.0913C17.2108 47.9004 21.9808 52.5415 27.847 55.2417Z" stroke="#333333" stroke-width="0.459213"/>
<path d="M17.0998 16.2103V12.2961C16.1793 13.5237 15.3579 14.8234 14.6433 16.1828L17.0998 16.2103Z" fill="white" stroke="#333333" stroke-width="0.459213"/>
<path d="M59.2083 9.05493V11.8498H61.7193C60.9443 10.8636 60.1055 9.92992 59.2083 9.05493Z" fill="white" stroke="#333333" stroke-width="0.459213"/>
<path d="M45.1857 1.56982V3.16296H47.9151V2.27712C47.0182 1.99357 46.1071 1.75749 45.1857 1.56982Z" fill="white" stroke="#333333" stroke-width="0.459213"/>
<path d="M22.6884 11.8154H19.9521V16.1828H22.6884V11.8154Z" fill="white" stroke="#333333" stroke-width="0.459213"/>
<path d="M22.6884 16.1829H19.9521V20.5434H22.6884V16.1829Z" fill="white" stroke="#333333" stroke-width="0.459213"/>
<path d="M22.6884 20.5022H19.9521V24.8696H22.6884V20.5022Z" fill="white" stroke="#333333" stroke-width="0.459213"/>
<path d="M22.6884 24.8694H19.9521V29.2299H22.6884V24.8694Z" fill="white" stroke="#333333" stroke-width="0.459213"/>
<path d="M22.6884 29.1956H19.9521V33.5561H22.6884V29.1956Z" fill="white" stroke="#333333" stroke-width="0.459213"/>
<path d="M22.6884 33.5562H19.9521V37.9166H22.6884V33.5562Z" fill="white" stroke="#333333" stroke-width="0.459213"/>
<path d="M22.6884 37.8752H19.9521V42.2357H22.6884V37.8752Z" fill="white" stroke="#333333" stroke-width="0.459213"/>
<path d="M22.6884 42.2017H19.9521V46.569H22.6884V42.2017Z" fill="white" stroke="#333333" stroke-width="0.459213"/>
<path d="M19.8703 16.1829H17.1477V20.5434H19.8703V16.1829Z" fill="white" stroke="#333333" stroke-width="0.459213"/>
<path d="M19.8703 20.5022H17.1477V24.8696H19.8703V20.5022Z" fill="white" stroke="#333333" stroke-width="0.459213"/>
<path d="M19.8703 24.8694H17.1477V29.2299H19.8703V24.8694Z" fill="white" stroke="#333333" stroke-width="0.459213"/>
<path d="M19.8703 29.1956H17.1477V33.5561H19.8703V29.1956Z" fill="white" stroke="#333333" stroke-width="0.459213"/>
<path d="M19.8703 33.5562H17.1477V37.9166H19.8703V33.5562Z" fill="white" stroke="#333333" stroke-width="0.459213"/>
<path d="M19.8703 37.8752H17.1477V42.2357H19.8703V37.8752Z" fill="white" stroke="#333333" stroke-width="0.459213"/>
<path d="M19.8703 42.2017H17.1477V46.569H19.8703V42.2017Z" fill="white" stroke="#333333" stroke-width="0.459213"/>
<path d="M17.0931 20.5022H14.3568V24.8696H17.0931V20.5022Z" fill="white" stroke="#333333" stroke-width="0.459213"/>
<path d="M17.0931 24.8694H14.3568V29.2299H17.0931V24.8694Z" fill="white" stroke="#333333" stroke-width="0.459213"/>
<path d="M17.0931 29.1956H14.3568V33.5561H17.0931V29.1956Z" fill="white" stroke="#333333" stroke-width="0.459213"/>
<path d="M17.0931 33.5562H14.3568V37.9166H17.0931V33.5562Z" fill="white" stroke="#333333" stroke-width="0.459213"/>
<path d="M25.5065 7.48926H22.7703V11.8498H25.5065V7.48926Z" fill="white" stroke="#333333" stroke-width="0.459213"/>
<path d="M25.5065 11.8154H22.7703V16.1828H25.5065V11.8154Z" fill="white" stroke="#333333" stroke-width="0.459213"/>
<path d="M25.5065 16.1829H22.7703V20.5434H25.5065V16.1829Z" fill="white" stroke="#333333" stroke-width="0.459213"/>
<path d="M25.5065 20.5022H22.7703V24.8696H25.5065V20.5022Z" fill="white" stroke="#333333" stroke-width="0.459213"/>
<path d="M25.5065 24.8694H22.7703V29.2299H25.5065V24.8694Z" fill="white" stroke="#333333" stroke-width="0.459213"/>
<path d="M25.5065 29.1956H22.7703V33.5561H25.5065V29.1956Z" fill="white" stroke="#333333" stroke-width="0.459213"/>
<path d="M25.5065 33.5562H22.7703V37.9166H25.5065V33.5562Z" fill="white" stroke="#333333" stroke-width="0.459213"/>
<path d="M25.5065 37.8752H22.7703V42.2357H25.5065V37.8752Z" fill="white" stroke="#333333" stroke-width="0.459213"/>
<path d="M25.5065 42.2017H22.7703V46.569H25.5065V42.2017Z" fill="white" stroke="#333333" stroke-width="0.459213"/>
<path d="M25.5065 46.5688H22.7703V50.9293H25.5065V46.5688Z" fill="white" stroke="#333333" stroke-width="0.459213"/>
<path d="M28.3178 7.48926H25.5815V11.8498H28.3178V7.48926Z" fill="#333333" stroke="#333333" stroke-width="0.459213"/>
<path d="M28.3178 11.8154H25.5815V16.1828H28.3178V11.8154Z" fill="white" stroke="#333333" stroke-width="0.459213"/>
<path d="M28.3178 16.1829H25.5815V20.5434H28.3178V16.1829Z" fill="white" stroke="#333333" stroke-width="0.459213"/>
<path d="M28.3178 20.5022H25.5815V24.8696H28.3178V20.5022Z" fill="white" stroke="#333333" stroke-width="0.459213"/>
<path d="M28.3178 24.8694H25.5815V29.2299H28.3178V24.8694Z" fill="white" stroke="#333333" stroke-width="0.459213"/>
<path d="M28.3178 29.1956H25.5815V33.5561H28.3178V29.1956Z" fill="white" stroke="#333333" stroke-width="0.459213"/>
<path d="M28.3178 33.5562H25.5815V37.9166H28.3178V33.5562Z" fill="white" stroke="#333333" stroke-width="0.459213"/>
<path d="M28.3178 37.8752H25.5815V42.2357H28.3178V37.8752Z" fill="white" stroke="#333333" stroke-width="0.459213"/>
<path d="M28.3178 42.2017H25.5815V46.569H28.3178V42.2017Z" fill="white" stroke="#333333" stroke-width="0.459213"/>
<path d="M28.3178 46.5688H25.5815V50.9293H28.3178V46.5688Z" fill="#333333" stroke="#333333" stroke-width="0.459213"/>
<path d="M31.0815 7.48926H28.3452V11.8498H31.0815V7.48926Z" fill="white" stroke="#333333" stroke-width="0.459213"/>
<path d="M31.0815 11.8154H28.3452V16.1828H31.0815V11.8154Z" fill="#333333" stroke="#333333" stroke-width="0.459213"/>
<path d="M31.0815 16.1829H28.3452V20.5434H31.0815V16.1829Z" fill="white" stroke="#333333" stroke-width="0.459213"/>
<path d="M31.0815 20.5022H28.3452V24.8696H31.0815V20.5022Z" fill="white" stroke="#333333" stroke-width="0.459213"/>
<path d="M31.0815 24.8694H28.3452V29.2299H31.0815V24.8694Z" fill="white" stroke="#333333" stroke-width="0.459213"/>
<path d="M31.0815 29.1956H28.3452V33.5561H31.0815V29.1956Z" fill="white" stroke="#333333" stroke-width="0.459213"/>
<path d="M31.0815 33.5562H28.3452V37.9166H31.0815V33.5562Z" fill="white" stroke="#333333" stroke-width="0.459213"/>
<path d="M31.0815 37.8752H28.3452V42.2357H31.0815V37.8752Z" fill="white" stroke="#333333" stroke-width="0.459213"/>
<path d="M31.0815 42.2017H28.3452V46.569H31.0815V42.2017Z" fill="#333333" stroke="#333333" stroke-width="0.459213"/>
<path d="M31.0815 46.5688H28.3452V50.9293H31.0815V46.5688Z" fill="white" stroke="#333333" stroke-width="0.459213"/>
<path d="M31.0815 50.8813H28.3452V55.2487H31.0815V50.8813Z" fill="#333333" stroke="#333333" stroke-width="0.459213"/>
<path d="M33.8995 7.48926H31.1632V11.8498H33.8995V7.48926Z" fill="white" stroke="#333333" stroke-width="0.459213"/>
<path d="M33.8995 3.12866H31.1632V7.48916H33.8995V3.12866Z" fill="white" stroke="#333333" stroke-width="0.459213"/>
<path d="M33.8995 11.8154H31.1632V16.1828H33.8995V11.8154Z" fill="white" stroke="#333333" stroke-width="0.459213"/>
<path d="M33.8995 16.1829H31.1632V20.5434H33.8995V16.1829Z" fill="white" stroke="#333333" stroke-width="0.459213"/>
<path d="M33.8995 20.5022H31.1632V24.8696H33.8995V20.5022Z" fill="white" stroke="#333333" stroke-width="0.459213"/>
<path d="M33.8995 24.8694H31.1632V29.2299H33.8995V24.8694Z" fill="white" stroke="#333333" stroke-width="0.459213"/>
<path d="M33.8995 29.1956H31.1632V33.5561H33.8995V29.1956Z" fill="white" stroke="#333333" stroke-width="0.459213"/>
<path d="M33.8995 33.5562H31.1632V37.9166H33.8995V33.5562Z" fill="white" stroke="#333333" stroke-width="0.459213"/>
<path d="M33.8995 37.8752H31.1632V42.2357H33.8995V37.8752Z" fill="white" stroke="#333333" stroke-width="0.459213"/>
<path d="M33.8995 42.2017H31.1632V46.569H33.8995V42.2017Z" fill="white" stroke="#333333" stroke-width="0.459213"/>
<path d="M33.8995 46.5688H31.1632V50.9293H33.8995V46.5688Z" fill="#333333" stroke="#333333" stroke-width="0.459213"/>
<path d="M33.8995 50.8813H31.1632V55.2487H33.8995V50.8813Z" fill="white" stroke="#333333" stroke-width="0.459213"/>
<path d="M36.704 7.48926H33.9746V11.8498H36.704V7.48926Z" fill="white" stroke="#333333" stroke-width="0.459213"/>
<path d="M36.704 3.12866H33.9746V7.48916H36.704V3.12866Z" fill="white" stroke="#333333" stroke-width="0.459213"/>
<path d="M36.704 11.8154H33.9746V16.1828H36.704V11.8154Z" fill="white" stroke="#333333" stroke-width="0.459213"/>
<path d="M36.704 16.1829H33.9746V20.5434H36.704V16.1829Z" fill="white" stroke="#333333" stroke-width="0.459213"/>
<path d="M36.704 20.5022H33.9746V24.8696H36.704V20.5022Z" fill="white" stroke="#333333" stroke-width="0.459213"/>
<path d="M36.704 24.8694H33.9746V29.2299H36.704V24.8694Z" fill="white" stroke="#333333" stroke-width="0.459213"/>
<path d="M36.704 29.1956H33.9746V33.5561H36.704V29.1956Z" fill="white" stroke="#333333" stroke-width="0.459213"/>
<path d="M36.704 33.5562H33.9746V37.9166H36.704V33.5562Z" fill="white" stroke="#333333" stroke-width="0.459213"/>
<path d="M36.704 37.8752H33.9746V42.2357H36.704V37.8752Z" fill="white" stroke="#333333" stroke-width="0.459213"/>
<path d="M36.704 42.2017H33.9746V46.569H36.704V42.2017Z" fill="white" stroke="#333333" stroke-width="0.459213"/>
<path d="M36.704 46.5688H33.9746V50.9293H36.704V46.5688Z" fill="white" stroke="#333333" stroke-width="0.459213"/>
<path d="M36.704 50.8813H33.9746V55.2487H36.704V50.8813Z" fill="white" stroke="#333333" stroke-width="0.459213"/>
<path d="M39.529 7.48926H36.7927V11.8498H39.529V7.48926Z" fill="white" stroke="#333333" stroke-width="0.459213"/>
<path d="M39.529 3.12866H36.7927V7.48916H39.529V3.12866Z" fill="#333333" stroke="#333333" stroke-width="0.459213"/>
<path d="M39.529 11.8154H36.7927V16.1828H39.529V11.8154Z" fill="white" stroke="#333333" stroke-width="0.459213"/>
<path d="M39.529 16.1829H36.7927V20.5434H39.529V16.1829Z" fill="white" stroke="#333333" stroke-width="0.459213"/>
<path d="M39.529 20.5022H36.7927V24.8696H39.529V20.5022Z" fill="white" stroke="#333333" stroke-width="0.459213"/>
<path d="M39.529 24.8694H36.7927V29.2299H39.529V24.8694Z" fill="white" stroke="#333333" stroke-width="0.459213"/>
<path d="M39.529 29.1956H36.7927V33.5561H39.529V29.1956Z" fill="white" stroke="#333333" stroke-width="0.459213"/>
<path d="M39.529 33.5562H36.7927V37.9166H39.529V33.5562Z" fill="white" stroke="#333333" stroke-width="0.459213"/>
<path d="M39.529 37.8752H36.7927V42.2357H39.529V37.8752Z" fill="white" stroke="#333333" stroke-width="0.459213"/>
<path d="M39.529 42.2017H36.7927V46.569H39.529V42.2017Z" fill="white" stroke="#333333" stroke-width="0.459213"/>
<path d="M39.529 46.5688H36.7927V50.9293H39.529V46.5688Z" fill="white" stroke="#333333" stroke-width="0.459213"/>
<path d="M39.529 50.8813H36.7927V55.2487H39.529V50.8813Z" fill="white" stroke="#333333" stroke-width="0.459213"/>
<path d="M42.3335 7.48926H39.5973V11.8498H42.3335V7.48926Z" fill="white" stroke="#333333" stroke-width="0.459213"/>
<path d="M42.3335 3.12866H39.5973V7.48916H42.3335V3.12866Z" fill="white" stroke="#333333" stroke-width="0.459213"/>
<path d="M42.3335 11.8154H39.5973V16.1828H42.3335V11.8154Z" fill="white" stroke="#333333" stroke-width="0.459213"/>
<path d="M42.3335 16.1829H39.5973V20.5434H42.3335V16.1829Z" fill="white" stroke="#333333" stroke-width="0.459213"/>
<path d="M42.3335 20.5022H39.5973V24.8696H42.3335V20.5022Z" fill="white" stroke="#333333" stroke-width="0.459213"/>
<path d="M42.3335 24.8694H39.5973V29.2299H42.3335V24.8694Z" fill="white" stroke="#333333" stroke-width="0.459213"/>
<path d="M42.3335 29.1956H39.5973V33.5561H42.3335V29.1956Z" fill="white" stroke="#333333" stroke-width="0.459213"/>
<path d="M42.3335 33.5562H39.5973V37.9166H42.3335V33.5562Z" fill="white" stroke="#333333" stroke-width="0.459213"/>
<path d="M42.3335 37.8752H39.5973V42.2357H42.3335V37.8752Z" fill="white" stroke="#333333" stroke-width="0.459213"/>
<path d="M42.3335 42.2017H39.5973V46.569H42.3335V42.2017Z" fill="#333333" stroke="#333333" stroke-width="0.459213"/>
<path d="M42.3335 46.5688H39.5973V50.9293H42.3335V46.5688Z" fill="white" stroke="#333333" stroke-width="0.459213"/>
<path d="M42.3335 50.8813H39.5973V55.2487H42.3335V50.8813Z" fill="white" stroke="#333333" stroke-width="0.459213"/>
<path d="M45.1106 7.48926H42.3744V11.8498H45.1106V7.48926Z" fill="white" stroke="#333333" stroke-width="0.459213"/>
<path d="M45.1106 3.12866H42.3744V7.48916H45.1106V3.12866Z" fill="white" stroke="#333333" stroke-width="0.459213"/>
<path d="M45.1106 11.8154H42.3744V16.1828H45.1106V11.8154Z" fill="white" stroke="#333333" stroke-width="0.459213"/>
<path d="M45.1106 16.1829H42.3744V20.5434H45.1106V16.1829Z" fill="white" stroke="#333333" stroke-width="0.459213"/>
<path d="M45.1106 20.5022H42.3744V24.8696H45.1106V20.5022Z" fill="white" stroke="#333333" stroke-width="0.459213"/>
<path d="M45.1106 24.8694H42.3744V29.2299H45.1106V24.8694Z" fill="white" stroke="#333333" stroke-width="0.459213"/>
<path d="M45.1106 29.1956H42.3744V33.5561H45.1106V29.1956Z" fill="white" stroke="#333333" stroke-width="0.459213"/>
<path d="M45.1106 33.5562H42.3744V37.9166H45.1106V33.5562Z" fill="white" stroke="#333333" stroke-width="0.459213"/>
<path d="M45.1106 37.8752H42.3744V42.2357H45.1106V37.8752Z" fill="white" stroke="#333333" stroke-width="0.459213"/>
<path d="M45.1106 42.2017H42.3744V46.569H45.1106V42.2017Z" fill="white" stroke="#333333" stroke-width="0.459213"/>
<path d="M45.1106 46.5688H42.3744V50.9293H45.1106V46.5688Z" fill="white" stroke="#333333" stroke-width="0.459213"/>
<path d="M45.1106 50.8813H42.3744V55.2487H45.1106V50.8813Z" fill="white" stroke="#333333" stroke-width="0.459213"/>
<path d="M47.9287 7.48926H45.1857V11.8498H47.9287V7.48926Z" fill="white" stroke="#333333" stroke-width="0.459213"/>
<path d="M47.9287 3.12866H45.1857V7.48916H47.9287V3.12866Z" fill="white" stroke="#333333" stroke-width="0.459213"/>
<path d="M47.9287 11.8154H45.1857V16.1828H47.9287V11.8154Z" fill="white" stroke="#333333" stroke-width="0.459213"/>
<path d="M47.9287 16.1829H45.1857V20.5434H47.9287V16.1829Z" fill="white" stroke="#333333" stroke-width="0.459213"/>
<path d="M47.9287 20.5022H45.1857V24.8696H47.9287V20.5022Z" fill="white" stroke="#333333" stroke-width="0.459213"/>
<path d="M47.9287 24.8694H45.1857V29.2299H47.9287V24.8694Z" fill="white" stroke="#333333" stroke-width="0.459213"/>
<path d="M47.9287 29.1956H45.1857V33.5561H47.9287V29.1956Z" fill="white" stroke="#333333" stroke-width="0.459213"/>
<path d="M47.9287 33.5562H45.1857V37.9166H47.9287V33.5562Z" fill="white" stroke="#333333" stroke-width="0.459213"/>
<path d="M47.9287 37.8752H45.1857V42.2357H47.9287V37.8752Z" fill="white" stroke="#333333" stroke-width="0.459213"/>
<path d="M47.9287 42.2017H45.1857V46.569H47.9287V42.2017Z" fill="white" stroke="#333333" stroke-width="0.459213"/>
<path d="M47.9287 46.5688H45.1857V50.9293H47.9287V46.5688Z" fill="white" stroke="#333333" stroke-width="0.459213"/>
<path d="M47.9287 50.8813H45.1857V55.2487H47.9287V50.8813Z" fill="white" stroke="#333333" stroke-width="0.459213"/>
<path d="M50.7197 7.48926H47.9971V11.8498H50.7197V7.48926Z" fill="white" stroke="#333333" stroke-width="0.459213"/>
<path d="M50.7197 11.8154H47.9971V16.1828H50.7197V11.8154Z" fill="white" stroke="#333333" stroke-width="0.459213"/>
<path d="M50.7197 16.1829H47.9971V20.5434H50.7197V16.1829Z" fill="white" stroke="#333333" stroke-width="0.459213"/>
<path d="M50.7197 20.5022H47.9971V24.8696H50.7197V20.5022Z" fill="white" stroke="#333333" stroke-width="0.459213"/>
<path d="M50.7197 24.8694H47.9971V29.2299H50.7197V24.8694Z" fill="white" stroke="#333333" stroke-width="0.459213"/>
<path d="M50.7197 29.1956H47.9971V33.5561H50.7197V29.1956Z" fill="white" stroke="#333333" stroke-width="0.459213"/>
<path d="M50.7197 33.5562H47.9971V37.9166H50.7197V33.5562Z" fill="white" stroke="#333333" stroke-width="0.459213"/>
<path d="M50.7197 37.8752H47.9971V42.2357H50.7197V37.8752Z" fill="white" stroke="#333333" stroke-width="0.459213"/>
<path d="M50.7197 42.2017H47.9971V46.569H50.7197V42.2017Z" fill="white" stroke="#333333" stroke-width="0.459213"/>
<path d="M50.7197 46.5688H47.9971V50.9293H50.7197V46.5688Z" fill="white" stroke="#333333" stroke-width="0.459213"/>
<path d="M50.7197 50.8813H47.9971V55.2487H50.7197V50.8813Z" fill="white" stroke="#333333" stroke-width="0.459213"/>
<path d="M53.5514 7.48926H50.8152V11.8498H53.5514V7.48926Z" fill="white" stroke="#333333" stroke-width="0.459213"/>
<path d="M53.5514 11.8154H50.8152V16.1828H53.5514V11.8154Z" fill="#333333" stroke="#333333" stroke-width="0.459213"/>
<path d="M53.5514 16.1829H50.8152V20.5434H53.5514V16.1829Z" fill="white" stroke="#333333" stroke-width="0.459213"/>
<path d="M53.5514 20.5022H50.8152V24.8696H53.5514V20.5022Z" fill="white" stroke="#333333" stroke-width="0.459213"/>
<path d="M53.5514 24.8694H50.8152V29.2299H53.5514V24.8694Z" fill="white" stroke="#333333" stroke-width="0.459213"/>
<path d="M53.5514 29.1956H50.8152V33.5561H53.5514V29.1956Z" fill="white" stroke="#333333" stroke-width="0.459213"/>
<path d="M53.5514 33.5562H50.8152V37.9166H53.5514V33.5562Z" fill="white" stroke="#333333" stroke-width="0.459213"/>
<path d="M53.5514 37.8752H50.8152V42.2357H53.5514V37.8752Z" fill="white" stroke="#333333" stroke-width="0.459213"/>
<path d="M53.5514 42.2017H50.8152V46.569H53.5514V42.2017Z" fill="white" stroke="#333333" stroke-width="0.459213"/>
<path d="M53.5514 46.5688H50.8152V50.9293H53.5514V46.5688Z" fill="#333333" stroke="#333333" stroke-width="0.459213"/>
<path d="M56.3218 7.48926H53.5856V11.8498H56.3218V7.48926Z" fill="white" stroke="#333333" stroke-width="0.459213"/>
<path d="M56.3218 11.8154H53.5856V16.1828H56.3218V11.8154Z" fill="white" stroke="#333333" stroke-width="0.459213"/>
<path d="M56.3218 16.1829H53.5856V20.5434H56.3218V16.1829Z" fill="white" stroke="#333333" stroke-width="0.459213"/>
<path d="M56.3218 20.5022H53.5856V24.8696H56.3218V20.5022Z" fill="white" stroke="#333333" stroke-width="0.459213"/>
<path d="M56.3218 24.8694H53.5856V29.2299H56.3218V24.8694Z" fill="white" stroke="#333333" stroke-width="0.459213"/>
<path d="M56.3218 29.1956H53.5856V33.5561H56.3218V29.1956Z" fill="white" stroke="#333333" stroke-width="0.459213"/>
<path d="M56.3218 33.5562H53.5856V37.9166H56.3218V33.5562Z" fill="white" stroke="#333333" stroke-width="0.459213"/>
<path d="M56.3218 37.8752H53.5856V42.2357H56.3218V37.8752Z" fill="white" stroke="#333333" stroke-width="0.459213"/>
<path d="M56.3218 42.2017H53.5856V46.569H56.3218V42.2017Z" fill="#333333" stroke="#333333" stroke-width="0.459213"/>
<path d="M56.3218 46.5688H53.5856V50.9293H56.3218V46.5688Z" fill="white" stroke="#333333" stroke-width="0.459213"/>
<path d="M59.1263 11.8154H56.3969V16.1828H59.1263V11.8154Z" fill="white" stroke="#333333" stroke-width="0.459213"/>
<path d="M59.1263 16.1829H56.3969V20.5434H59.1263V16.1829Z" fill="white" stroke="#333333" stroke-width="0.459213"/>
<path d="M59.1263 20.5022H56.3969V24.8696H59.1263V20.5022Z" fill="white" stroke="#333333" stroke-width="0.459213"/>
<path d="M59.1263 24.8694H56.3969V29.2299H59.1263V24.8694Z" fill="white" stroke="#333333" stroke-width="0.459213"/>
<path d="M59.1263 29.1956H56.3969V33.5561H59.1263V29.1956Z" fill="white" stroke="#333333" stroke-width="0.459213"/>
<path d="M59.1263 33.5562H56.3969V37.9166H59.1263V33.5562Z" fill="white" stroke="#333333" stroke-width="0.459213"/>
<path d="M59.1263 37.8752H56.3969V42.2357H59.1263V37.8752Z" fill="white" stroke="#333333" stroke-width="0.459213"/>
<path d="M59.1263 42.2017H56.3969V46.569H59.1263V42.2017Z" fill="white" stroke="#333333" stroke-width="0.459213"/>
<path d="M61.9377 16.1829H59.2083V20.5434H61.9377V16.1829Z" fill="white" stroke="#333333" stroke-width="0.459213"/>
<path d="M61.9377 20.5022H59.2083V24.8696H61.9377V20.5022Z" fill="white" stroke="#333333" stroke-width="0.459213"/>
<path d="M61.9377 24.8694H59.2083V29.2299H61.9377V24.8694Z" fill="white" stroke="#333333" stroke-width="0.459213"/>
<path d="M61.9377 29.1956H59.2083V33.5561H61.9377V29.1956Z" fill="white" stroke="#333333" stroke-width="0.459213"/>
<path d="M61.9377 33.5562H59.2083V37.9166H61.9377V33.5562Z" fill="white" stroke="#333333" stroke-width="0.459213"/>
<path d="M61.9377 37.8752H59.2083V42.2357H61.9377V37.8752Z" fill="white" stroke="#333333" stroke-width="0.459213"/>
<path d="M61.9377 42.2017H59.2083V46.569H61.9377V42.2017Z" fill="white" stroke="#333333" stroke-width="0.459213"/>
<path d="M64.749 20.5022H62.0195V24.8696H64.749V20.5022Z" fill="white" stroke="#333333" stroke-width="0.459213"/>
<path d="M64.749 24.8694H62.0195V29.2299H64.749V24.8694Z" fill="white" stroke="#333333" stroke-width="0.459213"/>
<path d="M64.749 29.1956H62.0195V33.5561H64.749V29.1956Z" fill="white" stroke="#333333" stroke-width="0.459213"/>
<path d="M64.749 33.5562H62.0195V37.9166H64.749V33.5562Z" fill="white" stroke="#333333" stroke-width="0.459213"/>
<path d="M67.4783 33.5492L64.7898 33.5561V29.1956L67.7922 29.1819L67.4783 33.5492Z" fill="white" stroke="#333333" stroke-width="0.459213"/>
<path d="M17.1681 12.2412V16.2103H19.8975V11.8154H17.5024C17.366 11.9528 17.2568 12.0901 17.1681 12.2412Z" fill="white" stroke="#333333" stroke-width="0.459213"/>
<path d="M17.0999 16.2102H14.6434C14.5479 16.3819 14.4524 16.5604 14.3636 16.739V20.5638H17.0931L17.0999 16.2102Z" fill="white" stroke="#333333" stroke-width="0.459213"/>
<path d="M64.7558 16.6292L64.5306 16.1829H62.0264V20.5365H64.7558V16.6292Z" fill="white" stroke="#333333" stroke-width="0.459213"/>
<path d="M61.9445 12.145C61.8626 12.0283 61.7739 11.9253 61.692 11.8154H59.2083V16.2103H61.9377L61.9445 12.145Z" fill="white" stroke="#333333" stroke-width="0.459213"/>
<path d="M50.2557 3.16309H47.9971V7.52359H50.7265V3.36223L50.2557 3.16309Z" fill="white" stroke="#333333" stroke-width="0.459213"/>
<path d="M31.0814 2.33228C30.324 2.57948 29.5665 2.85416 28.8296 3.16317H31.0814V2.33228Z" fill="white" stroke="#333333" stroke-width="0.459213"/>
<path d="M31.1632 2.31162V3.16311H33.8926V1.59058C32.9783 1.78972 32.0571 2.03007 31.1632 2.31162Z" fill="white" stroke="#333333" stroke-width="0.459213"/>
<path d="M33.9814 1.57614V3.16239H36.7109V1.15039C35.7942 1.2437 34.8831 1.38581 33.9814 1.57614Z" fill="white" stroke="#333333" stroke-width="0.459213"/>
<path d="M39.5289 1.00684C38.6172 1.00646 37.7061 1.05461 36.7994 1.15106V3.16306H39.5289V1.00684Z" fill="white" stroke="#333333" stroke-width="0.459213"/>
<path d="M42.3334 3.16308V1.1442C41.4395 1.05493 40.5252 1 39.604 1V3.16308H42.3334Z" fill="white" stroke="#333333" stroke-width="0.459213"/>
<path d="M42.4153 1.14355V3.16243H45.1447V1.55557C44.2428 1.36981 43.3317 1.23228 42.4153 1.14355Z" fill="white" stroke="#333333" stroke-width="0.459213"/>
<path d="M47.9971 2.29785V3.16309H50.358C49.5802 2.84721 48.8023 2.55193 47.9971 2.29785Z" fill="white" stroke="#333333" stroke-width="0.459213"/>
<path d="M53.5515 4.7562C52.6681 4.24699 51.7568 3.78846 50.822 3.38281V7.50297H53.5515V4.7562Z" fill="white" stroke="#333333" stroke-width="0.459213"/>
<path d="M53.5856 4.77686V7.48928H56.315V6.59659C55.4411 5.93718 54.5297 5.32957 53.5856 4.77686Z" fill="white" stroke="#333333" stroke-width="0.459213"/>
<path d="M56.4038 6.63086V7.48923H57.4888C57.1339 7.19395 56.745 6.90554 56.4038 6.63086Z" fill="white" stroke="#333333" stroke-width="0.459213"/>
<path d="M57.4888 7.48926H56.4038V11.8498H59.1332V8.97939C58.601 8.46437 58.0619 7.96994 57.4888 7.48926Z" fill="white" stroke="#333333" stroke-width="0.459213"/>
<path d="M62.0264 12.2412V16.2103H64.5306C63.8003 14.8234 62.9629 13.4963 62.0264 12.2412Z" fill="white" stroke="#333333" stroke-width="0.459213"/>
<path d="M64.7898 16.7046V20.5363H66.3728C65.9444 19.2198 65.4152 17.9387 64.7898 16.7046Z" fill="white" stroke="#333333" stroke-width="0.459213"/>
<path d="M66.366 20.5022H64.7898V24.8696H67.4305C67.192 23.3875 66.836 21.9271 66.366 20.5022Z" fill="white" stroke="#333333" stroke-width="0.459213"/>
<path d="M66.5162 37.8752H64.7898V42.1121C65.481 40.7505 66.0584 39.3333 66.5162 37.8752Z" fill="white" stroke="#333333" stroke-width="0.459213"/>
<path d="M62.0264 42.2017V46.569C63.0623 45.197 63.9757 43.7356 64.7558 42.2017H62.0264Z" fill="white" stroke="#333333" stroke-width="0.459213"/>
<path d="M59.2083 49.7826C60.1906 48.8222 61.1027 47.7918 61.9377 46.6993V46.5688H59.2083V49.7826Z" fill="white" stroke="#333333" stroke-width="0.459213"/>
<path d="M56.4038 50.9293H57.9732C58.3758 50.5791 58.7511 50.2427 59.1332 49.8581V46.5688H56.4038V50.9293Z" fill="white" stroke="#333333" stroke-width="0.459213"/>
<path d="M56.4038 50.8813V52.1929C56.9497 51.7809 57.4956 51.3414 58.0142 50.8813H56.4038Z" fill="white" stroke="#333333" stroke-width="0.459213"/>
<path d="M53.5856 54.047C54.5266 53.5016 55.4377 52.9056 56.315 52.2616V50.8882H53.5856V54.047Z" fill="white" stroke="#333333" stroke-width="0.459213"/>
<path d="M50.8152 55.2418H51.286C52.0571 54.8916 52.8145 54.4865 53.5514 54.0676V50.8813H50.822L50.8152 55.2418Z" fill="white" stroke="#333333" stroke-width="0.459213"/>
<path d="M28.3178 50.8813H25.5884V54.0607C26.3234 54.4924 27.0795 54.8866 27.8538 55.2418H28.3246L28.3178 50.8813Z" fill="white" stroke="#333333" stroke-width="0.459213"/>
<path d="M22.7703 52.2204C23.6432 52.8729 24.5547 53.4714 25.4997 54.0127V50.8813H22.7703V52.2204Z" fill="white" stroke="#333333" stroke-width="0.459213"/>
<path d="M22.6884 52.1586V50.8813H21.119C21.624 51.3277 22.1494 51.7535 22.6884 52.1586Z" fill="white" stroke="#333333" stroke-width="0.459213"/>
<path d="M19.959 49.81C20.3479 50.1877 20.7505 50.5654 21.1599 50.9293H22.6884V46.5688H19.959V49.81Z" fill="white" stroke="#333333" stroke-width="0.459213"/>
<path d="M17.1681 46.6375C18.0043 47.7333 18.9163 48.7682 19.8975 49.7345V46.5688H17.1681V46.6375Z" fill="white" stroke="#333333" stroke-width="0.459213"/>
<path d="M17.0999 42.2017H14.3705C15.1369 43.7359 16.0389 45.1976 17.0658 46.569L17.0999 42.2017Z" fill="white" stroke="#333333" stroke-width="0.459213"/>
<path d="M14.2954 33.5493H11.6615C11.8787 35.0299 12.2141 36.4904 12.6646 37.9167H14.2954V33.5493Z" fill="white" stroke="#333333" stroke-width="0.459213"/>
<path d="M14.2954 41.9886V37.8684H12.6509C13.0933 39.2822 13.6431 40.6596 14.2954 41.9886Z" fill="white" stroke="#333333" stroke-width="0.459213"/>
<path d="M14.2954 24.8694H11.7093C11.6342 25.2883 11.5796 25.7209 11.5318 26.1535L11.3817 29.2436H14.2681L14.2954 24.8694Z" fill="white" stroke="#333333" stroke-width="0.459213"/>
<path d="M14.2954 24.8696V20.5022H12.801C12.3343 21.928 11.9784 23.3882 11.7366 24.8696H14.2954Z" fill="white" stroke="#333333" stroke-width="0.459213"/>
<path d="M14.2954 20.5364V16.8557C13.706 18.0448 13.202 19.2748 12.7874 20.5364H14.2954Z" fill="white" stroke="#333333" stroke-width="0.459213"/>
<path d="M19.8976 11.8498V9.10303C19.0302 9.96534 18.2188 10.8828 17.4684 11.8498H19.8976Z" fill="white" stroke="#333333" stroke-width="0.459213"/>
<path d="M19.959 11.8498H22.6884V7.48926H21.6853C21.0849 7.98368 20.5117 8.51244 19.959 9.06179V11.8498Z" fill="white" stroke="#333333" stroke-width="0.459213"/>
<path d="M22.6884 6.69946C22.3472 6.95354 22.006 7.22135 21.6853 7.48916H22.6884V6.69946Z" fill="white" stroke="#333333" stroke-width="0.459213"/>
<path d="M22.7703 6.63779V7.48928H25.4997V4.83179C24.5535 5.37614 23.6419 5.97931 22.7703 6.63779Z" fill="white" stroke="#333333" stroke-width="0.459213"/>
<path d="M28.3178 3.38965C27.3849 3.79949 26.4739 4.2579 25.5884 4.76303V7.4686H28.3178V3.38965Z" fill="white" stroke="#333333" stroke-width="0.459213"/>
<path d="M28.3521 7.48924H31.0815V3.16309H28.9252L28.3521 3.40343V7.48924Z" fill="white" stroke="#333333" stroke-width="0.459213"/>
<path d="M67.5329 25.5424L67.4305 24.8557H64.7898V29.2574H67.7922L67.5329 25.5424Z" fill="white" stroke="#333333" stroke-width="0.445506"/>
<path d="M64.7898 33.5493V37.9167H66.5025C66.9507 36.4902 67.2839 35.0297 67.4988 33.5493H64.7898Z" fill="white" stroke="#333333" stroke-width="0.459213"/>
<path d="M64.7558 37.8752H62.0264V42.2357H64.7558C64.757 42.2175 64.757 42.1991 64.7558 42.1808V37.8752Z" fill="white" stroke="#333333" stroke-width="0.459213"/>
<path d="M14.4386 42.2357H17.1203V37.8752H14.3909V42.1396C14.3909 42.1396 14.3977 42.2014 14.4386 42.2357Z" fill="white" stroke="#333333" stroke-width="0.459213"/>
<path d="M11.6615 33.5492H14.2954V29.1887H11.4091L11.5592 32.581C11.5933 32.9106 11.6206 33.2333 11.6615 33.5492Z" fill="white" stroke="#333333" stroke-width="0.459213"/>
<path d="M70.4603 59.925V58.792H8.12012V61.1473H70.4603V59.925Z" fill="#DF3232"/>
<path d="M68.4542 22.1914C62.6746 22.1914 58.2598 25.2197 58.2598 30.4867C58.2598 34.9364 62.2857 38.0403 67.6763 38.0403C69.3769 37.9847 71.0382 37.5113 72.5153 36.6615C73.9925 35.8117 75.2407 34.6113 76.1512 33.1648C76.1512 32.5742 75.5644 32.3339 75.0185 32.3339C74.0836 33.7897 71.4293 34.9021 70.3375 34.854C63.8073 34.6137 62.7565 31.9836 62.6746 29.2369C62.5518 26.2429 65.7589 23.6472 68.4951 23.8463C70.0918 23.9631 70.6446 26.5931 72.0434 27.5407C72.7297 27.7521 73.4592 27.7781 74.1587 27.6163C74.6705 27.5407 76.0284 27.2249 76.0284 26.0506C76.0284 25.0618 74.8206 23.9906 73.6469 23.2558C71.9849 22.6196 70.231 22.2601 68.4542 22.1914Z" fill="#DF3232"/>
<path d="M29.8805 33.5904C29.8805 36.0281 29.2595 37.326 27.3011 37.4427L27.3421 37.841C30.6174 37.7998 33.9473 37.841 37.1476 37.7586L37.1817 37.5594C35.7078 37.5594 34.5614 35.9869 34.5614 34.0299V27.4582C34.5614 25.8513 36.513 24.8213 37.8436 24.9449C39.8906 25.1372 41.0507 26.4762 41.0507 27.6505V34.0985C41.0507 36.0693 40.4638 37.2916 38.9422 37.4015V37.7586H47.922V37.4976C46.5914 37.3397 45.6566 36.1243 45.6566 34.2702V27.5063C45.6566 26.0574 46.9053 25.0754 49.1366 25.0342C49.5256 25.0043 49.9166 25.0536 50.2863 25.1791C50.6559 25.3045 50.9968 25.5036 51.2884 25.7644C51.58 26.0252 51.8165 26.3424 51.9837 26.6971C52.151 27.0518 52.2455 27.4368 52.2618 27.829V33.9543C52.2618 36.0144 51.634 37.3397 50.0783 37.4976V37.7723C53.3536 37.8135 56.0489 37.8135 59.2901 37.7723V37.5732C57.5774 37.5732 56.9905 36.4333 56.9905 34.0436V27.2728C56.9905 25.0342 55.7759 22.3629 52.3778 22.3629C50.0782 22.3629 48.386 23.496 47.4239 23.8187C46.7415 24.0865 46.2843 24.4093 46.1274 24.4093C45.9089 24.3746 45.6995 24.2959 45.5119 24.1779C45.3243 24.0599 45.1623 23.9051 45.0356 23.7226C43.9747 22.7721 42.5854 22.2789 41.1667 22.3492C39.1742 22.3492 37.1817 23.4822 36.24 23.805C36.1309 23.8462 35.428 24.1964 35.3462 24.1964C35.2643 24.1964 34.5614 24.1964 34.5614 24.1209C34.5614 22.2325 34.6842 23.1732 34.6024 21.8411H33.3127C32.9306 21.8411 32.2551 22.5278 31.4772 22.8505C30.5423 23.2488 28.6659 23.2076 27.8948 23.4136V24.7458L29.9419 25.1372V27.7329L29.8805 33.5904Z" fill="#DF3232"/>
<path d="M21.0917 37.7997C24.5035 37.6349 27.8471 36.8933 27.8471 33.5491C27.8471 31.1182 25.1927 29.58 22.3882 28.3577C20.5868 27.6161 17.9733 26.5174 17.9733 25.6521C17.9733 24.629 19.9658 22.665 21.8764 24.2307L25.1995 27.0255L26.728 26.7096L25.8682 22.5483C25.0835 22.5483 24.5376 22.6238 21.6854 22.15C18.1644 21.6418 13.9884 23.4135 13.9884 26.7096C13.9884 28.9139 17.1545 30.4452 19.6588 31.4684C21.0235 32.059 23.4459 32.9242 23.4459 34.2564C23.4459 35.5886 21.1804 35.9113 19.8908 35.9113C17.7004 35.9113 15.278 32.9585 15.278 32.9585H13.8383L14.6162 37.3671C15.0731 37.1716 15.5807 37.1306 16.0627 37.2504C17.7021 37.6867 19.3975 37.8719 21.0917 37.7997Z" fill="#DF3232"/>
<path d="M12.8078 24.4505V22.3904L8.55677 22.4316C8.01089 22.4316 8.045 22.3217 8.045 21.6076L8.08594 18.8127H5.93651C5.25415 20.3029 4.4558 21.2917 3.9918 21.484L0 23.2488V24.4505L1.49437 24.4917C2.17672 24.4917 2.42919 24.4505 2.42919 25.2402V33.5286C2.42919 36.0487 3.79391 37.8959 7.31488 37.9715C8.31689 38.0144 9.31636 37.8398 10.2453 37.4594C11.1743 37.0791 12.0111 36.5019 12.6987 35.7672L12.3916 34.7509C11.974 35.1074 11.4511 35.315 10.9041 35.3414C7.90171 35.3414 7.98358 32.9792 7.98358 30.8985V25.2814C7.98358 24.4573 8.05182 24.4574 8.60453 24.4574L12.8078 24.4505Z" fill="#DF3232"/>
</svg>
